<svg width="17" height="17" viewBox="0 0 17 17" fill="none" xmlns="http://www.w3.org/2000/svg">
<path d="M7.58663 1.04906C7.93899 0.258569 9.06101 0.258571 9.41337 1.04906L11.0278 4.67082C11.1731 4.99685 11.4812 5.22069 11.8362 5.25816L15.7796 5.67436C16.6402 5.7652 16.987 6.8323 16.344 7.41169L13.3984 10.0663C13.1333 10.3052 13.0156 10.6674 13.0896 11.0166L13.9124 14.8956C14.0919 15.7422 13.1842 16.4017 12.4345 15.9693L8.99962 13.9882C8.69041 13.8098 8.30959 13.8098 8.00038 13.9882L4.56548 15.9693C3.81578 16.4017 2.90805 15.7422 3.08762 14.8956L3.91036 11.0166C3.98443 10.6674 3.86674 10.3052 3.60158 10.0663L0.655958 7.41169C0.0130446 6.8323 0.359768 5.7652 1.22045 5.67436L5.16383 5.25816C5.51881 5.22069 5.8269 4.99685 5.97223 4.67082L7.58663 1.04906Z" fill="#F55757"/>
</svg>
