<svg width="23" height="25" viewBox="0 0 23 25" fill="none" xmlns="http://www.w3.org/2000/svg">
<path d="M22.4372 12.5169C22.4372 14.3421 22.1751 16.0172 21.6508 17.5421C21.1704 18.9926 20.4067 20.3331 19.404 21.486C18.4271 22.5908 17.2236 23.4723 15.8756 24.0702C14.5025 24.6888 12.9631 24.9981 11.2574 24.9981C9.49495 24.9981 7.91688 24.6888 6.52323 24.0702C5.16823 23.4801 3.96046 22.5976 2.98638 21.486C1.99233 20.3317 1.23809 18.991 0.76766 17.5421C0.255886 16.0178 0 14.3427 0 12.5169C0 10.6798 0.264936 8.99438 0.794809 7.46067C1.32468 5.92697 2.07362 4.60924 3.04162 3.50749C4.01792 2.40148 5.2232 1.52124 6.57379 0.927903C7.95245 0.309301 9.50057 0 11.2181 0C12.9656 0 14.5347 0.309301 15.9252 0.927903C17.2767 1.51999 18.4813 2.40227 19.4536 3.51217C20.4179 4.61704 21.1562 5.93477 21.6686 7.46536C22.181 8.99594 22.4372 10.6798 22.4372 12.5169ZM11.2827 12.5169C11.2827 10.8961 19.3076 9.46723 18.8826 8.23034C18.4575 6.99345 17.8724 5.96161 17.1263 5.13296C16.3973 4.31693 15.4954 3.67395 14.4863 3.25094C13.4509 2.82044 12.3394 2.60295 11.2181 2.61142C10.0969 2.60292 8.98536 2.82042 7.94996 3.25094C6.94084 3.67387 6.03889 4.31686 5.30996 5.13296C4.56102 5.9613 3.97529 6.99376 3.55277 8.23034C3.12774 9.46723 11.2818 10.8961 11.2818 12.5169C11.2818 14.1376 3.13243 15.5637 3.56306 16.7987C3.9937 18.0337 4.58255 19.059 5.32868 19.8886C6.05639 20.7037 6.95886 21.3439 7.96868 21.7612C9.01136 22.1872 10.1284 22.4014 11.2546 22.3914C12.3694 22.4016 13.4748 22.1873 14.505 21.7612C15.5074 21.3402 16.403 20.7004 17.1263 19.8886C17.8752 19.0602 18.4607 18.0303 18.8826 16.7987C19.3076 15.5637 11.2827 14.1386 11.2827 12.5169Z" fill="#F55757"/>
</svg>
